<?xml version="1.0" encoding="utf-8"?>
<!-- Generator: Adobe Illustrator 14.0.0, SVG Export Plug-In . SVG Version: 6.00 Build 43363)  -->
<!DOCTYPE svg PUBLIC "-//W3C//DTD SVG 1.1//EN" "http://www.w3.org/Graphics/SVG/1.1/DTD/svg11.dtd">
<svg version="1.1" id="Capa_1" xmlns="http://www.w3.org/2000/svg" xmlns:xlink="http://www.w3.org/1999/xlink" x="0px" y="0px"
	 width="200px" height="100px" viewBox="0 0 200 100" enable-background="new 0 0 200 100" xml:space="preserve">
<g>
	<rect x="15.793" y="22.269" width="45.184" height="45.184"/>
	<path fill="#494949" d="M35.749,55.947c-0.773-1.104-1.16-2.666-1.16-4.686V38.003c0-2.018,0.386-3.58,1.16-4.685
		c0.772-1.104,1.888-1.658,3.345-1.658c1.457,0,2.571,0.553,3.344,1.658c0.773,1.105,1.16,2.667,1.16,4.685v13.259
		c0,2.02-0.387,3.581-1.16,4.686c-0.773,1.105-1.887,1.655-3.344,1.655C37.636,57.603,36.521,57.053,35.749,55.947z M40.63,51.515
		V37.75c0-1.657-0.513-2.486-1.537-2.486c-1.025,0-1.538,0.83-1.538,2.486v13.765c0,1.658,0.513,2.487,1.538,2.487
		C40.117,54.002,40.63,53.173,40.63,51.515z"/>
	<path fill="#FFFFFF" d="M33.651,55.613c-0.836-1.104-1.253-2.666-1.253-4.684V37.669c0-2.017,0.417-3.578,1.253-4.684
		c0.836-1.104,2.04-1.658,3.615-1.658c1.575,0,2.781,0.553,3.615,1.658c0.836,1.105,1.255,2.667,1.255,4.684V50.93
		c0,2.018-0.419,3.579-1.255,4.684c-0.834,1.105-2.04,1.658-3.615,1.658C35.691,57.271,34.487,56.719,33.651,55.613z M38.929,51.182
		V37.417c0-1.658-0.555-2.486-1.664-2.486c-1.107,0-1.662,0.829-1.662,2.486v13.764c0,1.658,0.554,2.486,1.662,2.486
		C38.374,53.668,38.929,52.84,38.929,51.182z"/>
</g>
<g>
	<rect x="59.237" y="15.19" fill="#F85959" width="45.184" height="45.184"/>
	<path fill="#494949" d="M78.77,25.067h2.668v9.345H84.3v-9.345h2.668v22.954H84.3V37.692h-2.862v10.329H78.77V25.067z"/>
	<path fill="#FFFFFF" d="M77.396,24.284h2.885v9.345h3.094v-9.345h2.884v22.954h-2.884V36.909h-3.094v10.328h-2.885V24.284z"/>
</g>
<g>
	<rect x="98.298" y="22.073" width="45.577" height="45.575"/>
	<path fill="#494949" d="M116.104,32.378h2.711l1.256,17.795h0.051l1.332-17.795h3.068l1.332,17.795h0.051l1.254-17.795h2.428
		l-1.814,23.154h-3.506l-1.281-15.612h-0.049l-1.281,15.612h-3.734L116.104,32.378z"/>
	<path fill="#FFFFFF" d="M115.057,31.715h2.635l1.221,17.797h0.047l1.297-17.797h2.984l1.295,17.797h0.049l1.219-17.797h2.361
		L126.4,54.868h-3.41l-1.244-15.612h-0.051l-1.242,15.612h-3.629L115.057,31.715z"/>
</g>
<g>
	<rect x="135.399" y="15.19" fill="#BEE42A" width="45.541" height="45.542"/>
	<path fill="#494949" d="M156.865,25.164h4.707l3.604,23.136h-3.474l-0.636-4.594v0.066h-3.95l-0.63,4.528h-3.223L156.865,25.164z
		 M160.66,40.631l-1.555-11.435h-0.06l-1.516,11.435H160.66z"/>
	<path fill="#FFFFFF" d="M155.934,24.266h4.473l3.422,23.136h-3.304l-0.599-4.594v0.065h-3.753l-0.598,4.528h-3.061L155.934,24.266z
		 M159.537,39.734l-1.474-11.436h-0.061l-1.438,11.436H159.537z"/>
	<g>
		<path fill="#494949" d="M179.629,41.889l4.048-14.67l5.527,1.526l-4.051,14.67l-3.798,11.011l-4.117-1.139L179.629,41.889z
			 M175.539,57.094l5.326,1.467l-1.471,5.324l-5.326-1.467L175.539,57.094z"/>
	</g>
	<g>
		<path fill="#FFFFFF" d="M178.239,41.226l4.049-14.671l5.523,1.526l-4.048,14.67l-3.798,11.008l-4.116-1.137L178.239,41.226z
			 M174.148,56.426l5.327,1.471l-1.47,5.328l-5.328-1.473L174.148,56.426z"/>
	</g>
</g>
<g>
	<path stroke="#000000" stroke-width="0.4" d="M25.888,89.376h-0.843l-2.71-12.383v12.402h-0.75V75.393h1.208l2.691,12.383
		l2.674-12.383h1.208v14.003h-0.806V76.953L25.888,89.376z"/>
	<path stroke="#000000" stroke-width="0.4" d="M35.303,86.295l-0.641,3.101h-0.769l2.802-14.023h1.227l2.856,14.023h-0.842
		l-0.641-3.101H35.303z M35.431,85.495h3.735l-1.886-9.063L35.431,85.495z"/>
	<path stroke="#000000" stroke-width="0.4" d="M47.976,75.393c1.959,0,2.747,1.181,2.747,3.16v1.221c0,1.641-0.586,2.58-1.85,2.9
		c1.318,0.32,1.85,1.341,1.85,2.861v2.18c0,0.58,0.037,1.221,0.312,1.681h-0.879c-0.22-0.42-0.275-0.92-0.275-1.681v-2.2
		c0-1.86-0.934-2.381-2.399-2.381h-1.336v6.262h-0.842V75.393H47.976z M47.5,82.294c1.501,0,2.38-0.46,2.38-2.341v-1.32
		c0-1.5-0.531-2.4-1.922-2.4h-1.813v6.062H47.5z"/>
	<path stroke="#000000" stroke-width="0.4" d="M57.335,82.814l-0.879,1.52v5.062h-0.842V75.393h0.842v7.401l4.175-7.401h0.879
		l-3.662,6.521l3.9,7.481h-0.879L57.335,82.814z"/>
	<path stroke="#000000" stroke-width="0.4" d="M70.596,81.874v0.84h-3.498v5.842h4.211v0.84h-5.054V75.393h5.054v0.84h-4.211v5.642
		H70.596z"/>
	<path stroke="#000000" stroke-width="0.4" d="M78.142,89.396V76.232h-2.618v-0.84h6.061v0.84h-2.6v13.163H78.142z"/>
	<path stroke="#000000" stroke-width="0.4" d="M86.769,75.393v14.003h-0.842V75.393H86.769z"/>
	<path stroke="#000000" stroke-width="0.4" d="M92.245,89.396h-0.769V75.393h1.099l3.845,11.822V75.393h0.769v14.003h-0.934
		l-4.01-12.482V89.396z"/>
	<path stroke="#000000" stroke-width="0.4" d="M107.354,78.813v1.04h-0.806v-1.101c0-1.5-0.531-2.641-1.941-2.641
		s-1.94,1.141-1.94,2.641v7.282c0,1.5,0.53,2.62,1.94,2.62s1.941-1.12,1.941-2.62v-3.021h-1.703v-0.84h2.509v3.801
		c0,2.021-0.806,3.541-2.765,3.541c-1.96,0-2.766-1.521-2.766-3.541v-7.161c0-2.021,0.806-3.541,2.766-3.541
		C106.549,75.272,107.354,76.793,107.354,78.813z"/>
	<path stroke="#000000" stroke-width="0.4" d="M120.908,75.393c1.979,0,2.839,1.42,2.839,3.48v7.042c0,2.061-0.86,3.48-2.839,3.48
		h-2.819V75.393H120.908z M120.891,88.556c1.428,0,2.014-1.061,2.014-2.601v-7.122c0-1.54-0.604-2.601-2.014-2.601h-1.959v12.323
		H120.891z"/>
	<path stroke="#000000" stroke-width="0.4" d="M129.225,75.393v14.003h-0.843V75.393H129.225z"/>
	<path stroke="#000000" stroke-width="0.4" d="M139.406,78.813v1.04h-0.806v-1.101c0-1.5-0.53-2.641-1.94-2.641
		s-1.941,1.141-1.941,2.641v7.282c0,1.5,0.531,2.62,1.941,2.62s1.94-1.12,1.94-2.62v-3.021h-1.702v-0.84h2.508v3.801
		c0,2.021-0.806,3.541-2.765,3.541s-2.765-1.521-2.765-3.541v-7.161c0-2.021,0.806-3.541,2.765-3.541S139.406,76.793,139.406,78.813
		z"/>
	<path stroke="#000000" stroke-width="0.4" d="M144.902,75.393v14.003h-0.843V75.393H144.902z"/>
	<path stroke="#000000" stroke-width="0.4" d="M151.825,89.396V76.232h-2.618v-0.84h6.061v0.84h-2.601v13.163H151.825z"/>
	<path stroke="#000000" stroke-width="0.4" d="M160.141,86.295l-0.641,3.101h-0.77l2.802-14.023h1.228l2.855,14.023h-0.842
		l-0.641-3.101H160.141z M160.27,85.495h3.734l-1.886-9.063L160.27,85.495z"/>
	<path stroke="#000000" stroke-width="0.4" d="M170.141,89.396V75.393h0.842v13.163h4.029v0.84H170.141z"/>
</g>
</svg>
