<svg xmlns="http://www.w3.org/2000/svg" width="1330" height="1200" viewBox="385 150 1330 1200">
  <defs>
    <style>
      .cls-1 {
        fill-rule: evenodd;
      }
    </style>
  </defs>
  <path id="Forma_6" data-name="Forma 6" class="cls-1" d="M973.759,834.085c26.521,38.868-75.824,268.955-181.364,313.325a69.847,69.847,0,0,1-33.312,5.31C671,1144.58,591.217,960.479,619.972,874.458c6.606-19.763,13.513-28.915,20.67-29.752,31.53-3.687,56.685,158.144,125.844,203.574,9.126,6,18.812,9.1,22.208,8.85,49.783-3.71,64.023-170.39,138.182-215.964C947.233,828.656,965.907,822.577,973.759,834.085Z"/>
  <path id="Forma_6-2" data-name="Forma 6" class="cls-1" d="M1452.76,671.085c26.52,38.868-75.82,268.956-181.36,313.328a69.865,69.865,0,0,1-33.32,5.31c-88.08-8.145-167.86-192.244-139.11-278.265,6.61-19.763,13.52-28.915,20.67-29.752,31.53-3.687,56.69,158.146,125.85,203.575,9.12,5.994,18.81,9.1,22.2,8.851,49.79-3.707,64.03-170.392,138.19-215.966C1426.23,665.656,1444.91,659.577,1452.76,671.085Z"/>
  <path id="Forma_6-3" data-name="Forma 6" class="cls-1" d="M867.759,396.085c26.52,38.868-75.824,268.956-181.364,313.328a69.823,69.823,0,0,1-33.312,5.31C565,706.578,485.217,522.479,513.972,436.458c6.606-19.763,13.513-28.915,20.67-29.752,31.53-3.687,56.685,158.146,125.844,203.575,9.126,5.994,18.812,9.1,22.208,8.851,49.783-3.707,64.023-170.392,138.182-215.966C841.233,390.656,859.907,384.577,867.759,396.085Z"/>
  <path id="Forma_6-4" data-name="Forma 6" class="cls-1" d="M1380.76,233.085c26.52,38.868-75.82,268.956-181.36,313.328a69.865,69.865,0,0,1-33.32,5.31c-88.08-8.145-167.863-192.244-139.11-278.265,6.61-19.763,13.51-28.915,20.67-29.752,31.53-3.687,56.69,158.146,125.85,203.575,9.12,5.994,18.81,9.1,22.2,8.851,49.79-3.707,64.03-170.392,138.19-215.966C1354.23,227.656,1372.91,221.577,1380.76,233.085Z"/>
</svg>
