<svg xmlns="http://www.w3.org/2000/svg" width="1030" height="1500" viewBox="0 0 1030 1500">
  <defs>
    <style>
      .cls-1 {
        fill: #f85959;
        fill-rule: evenodd;
      }
    </style>
  </defs>
  <path id="Forma_1" data-name="Forma 1" class="cls-1" d="M784.232,657.906C780.763,768.224,714.8,869.3,609.867,959.83c-79.768,120.93-86.526,267.05-29.061,368.23,82.527,145.31,277.116,165.09,387.477,98.27,131.467-79.59,96.387-253.62,232.487-342.18,81.82-53.23,159.09-13.94,244.33-89.984,27.35-24.405,70.48-84.583,95.79-172.866,34.06-118.8,6.62-210.447-13.99-365.861-16.06-121.02-14.75-201.863-61.35-266.4-65.52-90.744-166.08-115.782-287.38-133.794C941.553,20.108,785.129,37.439,742.255,93.13c-32.916,42.756-56.991,135.559-32.29,280.612C727.352,475.843,787.485,554.418,784.232,657.906Z" transform="translate(-535)"/>
</svg>
