<?xml version="1.0" encoding="utf-8"?>
<!-- Generator: Adobe Illustrator 14.0.0, SVG Export Plug-In . SVG Version: 6.00 Build 43363)  -->
<!DOCTYPE svg PUBLIC "-//W3C//DTD SVG 1.1//EN" "http://www.w3.org/Graphics/SVG/1.1/DTD/svg11.dtd">
<svg version="1.1" id="Capa_1" xmlns="http://www.w3.org/2000/svg" xmlns:xlink="http://www.w3.org/1999/xlink" x="0px" y="0px"
	 width="200px" height="200px" viewBox="0 0 200 200" enable-background="new 0 0 200 200" xml:space="preserve">
<g>
	<rect x="20.185" y="83.838" width="76.477" height="76.478"/>
	<rect x="97.148" y="3.642" width="76.478" height="76.477"/>
	<rect x="26.595" y="6.874" fill="#F85959" width="76.478" height="76.478"/>
	<rect x="97.148" y="77.427" fill="#BEE42A" width="76.478" height="76.478"/>
	<path fill="#494949" d="M60.372,63.876c-1.309-1.87-1.963-4.513-1.963-7.928V33.504c0-3.415,0.654-6.058,1.963-7.928
		c1.308-1.87,3.195-2.806,5.661-2.806c2.465,0,4.351,0.936,5.659,2.806s1.964,4.513,1.964,7.928v22.444
		c0,3.415-0.655,6.059-1.964,7.928c-1.309,1.871-3.194,2.806-5.659,2.806C63.567,66.682,61.68,65.747,60.372,63.876z M68.634,56.375
		V33.077c0-2.805-0.867-4.208-2.601-4.208c-1.735,0-2.603,1.403-2.603,4.208v23.297c0,2.806,0.867,4.209,2.603,4.209
		C67.767,60.583,68.634,59.181,68.634,56.375z"/>
	<path fill="#FFFFFF" d="M56.821,63.313c-1.414-1.87-2.121-4.513-2.121-7.928V32.94c0-3.415,0.707-6.058,2.121-7.928
		c1.415-1.869,3.453-2.806,6.119-2.806s4.705,0.937,6.119,2.806c1.414,1.871,2.123,4.513,2.123,7.928v22.444
		c0,3.415-0.709,6.059-2.123,7.928c-1.414,1.871-3.453,2.806-6.119,2.806S58.236,65.184,56.821,63.313z M65.755,55.812V32.514
		c0-2.806-0.939-4.209-2.814-4.209s-2.813,1.403-2.813,4.209v23.297c0,2.806,0.938,4.208,2.813,4.208S65.755,58.618,65.755,55.812z"
		/>
	<path fill="#494949" d="M130.211,20.359h4.516v15.819h4.845V20.359h4.516v38.853h-4.516V41.729h-4.845v17.483h-4.516V20.359z"/>
	<path fill="#FFFFFF" d="M127.887,19.034h4.883v15.819h5.236V19.034h4.881v38.853h-4.881V40.403h-5.236v17.484h-4.883V19.034z"/>
	<path fill="#494949" d="M51.011,94.175h4.552l2.104,29.862h0.084l2.234-29.862h5.151l2.234,29.862h0.085l2.104-29.862h4.077
		l-3.047,38.852h-5.883l-2.148-26.197h-0.085l-2.147,26.197H54.06L51.011,94.175z"/>
	<path fill="#FFFFFF" d="M49.252,93.062h4.426l2.046,29.862h0.082l2.173-29.862h5.009l2.172,29.862h0.082l2.046-29.862h3.965
		l-2.964,38.854h-5.721l-2.089-26.199h-0.083l-2.087,26.199h-6.092L49.252,93.062z"/>
	<path fill="#494949" d="M133.197,94.175h7.903l6.048,38.852h-5.835l-1.062-7.715v0.111h-6.631l-1.062,7.604h-5.411L133.197,94.175z
		 M139.563,120.15l-2.6-19.204h-0.106l-2.546,19.204H139.563z"/>
	<path fill="#FFFFFF" d="M131.633,92.667h7.509l5.745,38.853h-5.545l-1.007-7.715v0.111h-6.301l-1.008,7.604h-5.14L131.633,92.667z
		 M137.676,118.643l-2.463-19.205h-0.104l-2.42,19.205H137.676z"/>
	<g>
		<path fill="#494949" d="M171.42,122.264l6.8-24.636l9.28,2.562l-6.801,24.635l-6.375,18.488l-6.917-1.91L171.42,122.264z
			 M164.556,147.789l8.943,2.469l-2.47,8.943l-8.943-2.469L164.556,147.789z"/>
	</g>
	<g>
		<path fill="#FFFFFF" d="M169.086,121.148l6.8-24.637l9.28,2.563l-6.801,24.635l-6.375,18.488l-6.917-1.91L169.086,121.148z
			 M162.222,146.674l8.943,2.469l-2.47,8.943l-8.943-2.469L162.222,146.674z"/>
	</g>
</g>
<g>
	<path stroke="#000000" stroke-width="0.4" d="M24.493,188.386H23.65l-2.71-12.383v12.402h-0.75v-14.003h1.208l2.691,12.383
		l2.674-12.383h1.208v14.003h-0.806v-12.442L24.493,188.386z"/>
	<path stroke="#000000" stroke-width="0.4" d="M33.908,185.305l-0.641,3.101h-0.769l2.802-14.023h1.227l2.856,14.023h-0.842
		l-0.641-3.101H33.908z M34.036,184.505h3.735l-1.886-9.063L34.036,184.505z"/>
	<path stroke="#000000" stroke-width="0.4" d="M46.582,174.402c1.959,0,2.747,1.181,2.747,3.16v1.221c0,1.641-0.586,2.58-1.85,2.9
		c1.318,0.32,1.85,1.341,1.85,2.861v2.18c0,0.58,0.037,1.221,0.312,1.681h-0.879c-0.22-0.42-0.275-0.92-0.275-1.681v-2.2
		c0-1.86-0.934-2.381-2.399-2.381H44.75v6.262h-0.842v-14.003H46.582z M46.105,181.304c1.501,0,2.38-0.46,2.38-2.341v-1.32
		c0-1.5-0.531-2.4-1.922-2.4H44.75v6.062H46.105z"/>
	<path stroke="#000000" stroke-width="0.4" d="M55.941,181.824l-0.879,1.52v5.062H54.22v-14.003h0.842v7.401l4.175-7.401h0.879
		l-3.662,6.521l3.9,7.481h-0.879L55.941,181.824z"/>
	<path stroke="#000000" stroke-width="0.4" d="M69.201,180.884v0.84h-3.498v5.842h4.211v0.84h-5.054v-14.003h5.054v0.84h-4.211
		v5.642H69.201z"/>
	<path stroke="#000000" stroke-width="0.4" d="M76.747,188.405v-13.163h-2.618v-0.84h6.061v0.84h-2.6v13.163H76.747z"/>
	<path stroke="#000000" stroke-width="0.4" d="M85.375,174.402v14.003h-0.842v-14.003H85.375z"/>
	<path stroke="#000000" stroke-width="0.4" d="M90.851,188.405h-0.769v-14.003h1.099l3.845,11.822v-11.822h0.769v14.003H94.86
		l-4.01-12.482V188.405z"/>
	<path stroke="#000000" stroke-width="0.4" d="M105.96,177.823v1.04h-0.806v-1.101c0-1.5-0.531-2.641-1.941-2.641
		s-1.94,1.141-1.94,2.641v7.282c0,1.5,0.53,2.62,1.94,2.62s1.941-1.12,1.941-2.62v-3.021h-1.703v-0.84h2.509v3.801
		c0,2.021-0.806,3.541-2.765,3.541c-1.96,0-2.766-1.521-2.766-3.541v-7.161c0-2.021,0.806-3.541,2.766-3.541
		C105.154,174.282,105.96,175.803,105.96,177.823z"/>
	<path stroke="#000000" stroke-width="0.4" d="M119.514,174.402c1.979,0,2.839,1.42,2.839,3.48v7.042c0,2.061-0.86,3.48-2.839,3.48
		h-2.819v-14.003H119.514z M119.496,187.565c1.428,0,2.014-1.061,2.014-2.601v-7.122c0-1.54-0.604-2.601-2.014-2.601h-1.959v12.323
		H119.496z"/>
	<path stroke="#000000" stroke-width="0.4" d="M127.83,174.402v14.003h-0.843v-14.003H127.83z"/>
	<path stroke="#000000" stroke-width="0.4" d="M138.012,177.823v1.04h-0.806v-1.101c0-1.5-0.53-2.641-1.94-2.641
		s-1.941,1.141-1.941,2.641v7.282c0,1.5,0.531,2.62,1.941,2.62s1.94-1.12,1.94-2.62v-3.021h-1.702v-0.84h2.508v3.801
		c0,2.021-0.806,3.541-2.765,3.541s-2.765-1.521-2.765-3.541v-7.161c0-2.021,0.806-3.541,2.765-3.541
		S138.012,175.803,138.012,177.823z"/>
	<path stroke="#000000" stroke-width="0.4" d="M143.508,174.402v14.003h-0.843v-14.003H143.508z"/>
	<path stroke="#000000" stroke-width="0.4" d="M150.431,188.405v-13.163h-2.618v-0.84h6.061v0.84h-2.601v13.163H150.431z"/>
	<path stroke="#000000" stroke-width="0.4" d="M158.746,185.305l-0.641,3.101h-0.77l2.802-14.023h1.228l2.855,14.023h-0.842
		l-0.641-3.101H158.746z M158.875,184.505h3.734l-1.886-9.063L158.875,184.505z"/>
	<path stroke="#000000" stroke-width="0.4" d="M168.746,188.405v-14.003h0.842v13.163h4.029v0.84H168.746z"/>
</g>
</svg>
