<?xml version="1.0" encoding="utf-8"?>
<!-- Generator: Adobe Illustrator 14.0.0, SVG Export Plug-In . SVG Version: 6.00 Build 43363)  -->
<!DOCTYPE svg PUBLIC "-//W3C//DTD SVG 1.1//EN" "http://www.w3.org/Graphics/SVG/1.1/DTD/svg11.dtd">
<svg version="1.1" xmlns="http://www.w3.org/2000/svg" xmlns:xlink="http://www.w3.org/1999/xlink" x="0px" y="0px" width="800px"
	 height="600px" viewBox="0 0 800 600" enable-background="new 0 0 800 600" xml:space="preserve">
<g id="Capa_1">
	<g>
		<rect x="316.533" y="260.097" width="76.477" height="76.478"/>
		<rect x="393.497" y="179.9" width="76.478" height="76.477"/>
		<rect x="322.944" y="183.132" fill="#F85959" width="76.478" height="76.478"/>
		<rect x="393.497" y="253.685" fill="#BEE42A" width="76.478" height="76.477"/>
		<path fill="#494949" d="M356.721,240.135c-1.309-1.87-1.963-4.513-1.963-7.928v-22.444c0-3.415,0.654-6.058,1.963-7.928
			c1.308-1.87,3.195-2.806,5.661-2.806c2.465,0,4.351,0.936,5.659,2.806s1.964,4.513,1.964,7.928v22.444
			c0,3.415-0.655,6.059-1.964,7.928c-1.309,1.871-3.194,2.806-5.659,2.806C359.916,242.94,358.028,242.005,356.721,240.135z
			 M364.982,232.633v-23.297c0-2.805-0.867-4.208-2.601-4.208c-1.735,0-2.603,1.403-2.603,4.208v23.297
			c0,2.806,0.867,4.209,2.603,4.209C364.115,236.842,364.982,235.439,364.982,232.633z"/>
		<path fill="#FFFFFF" d="M353.17,239.571c-1.414-1.87-2.121-4.513-2.121-7.928v-22.444c0-3.415,0.707-6.058,2.121-7.928
			c1.415-1.869,3.453-2.806,6.119-2.806s4.705,0.937,6.119,2.806c1.414,1.871,2.123,4.513,2.123,7.928v22.444
			c0,3.415-0.709,6.059-2.123,7.928c-1.414,1.871-3.453,2.806-6.119,2.806S354.585,241.442,353.17,239.571z M362.104,232.07v-23.297
			c0-2.806-0.939-4.209-2.814-4.209s-2.813,1.403-2.813,4.209v23.297c0,2.806,0.938,4.208,2.813,4.208
			S362.104,234.876,362.104,232.07z"/>
		<path fill="#494949" d="M426.56,196.618h4.516v15.819h4.845v-15.819h4.516v38.853h-4.516v-17.483h-4.845v17.483h-4.516V196.618z"
			/>
		<path fill="#FFFFFF" d="M424.235,195.292h4.883v15.819h5.236v-15.819h4.881v38.853h-4.881v-17.484h-5.236v17.484h-4.883V195.292z"
			/>
		<path fill="#494949" d="M347.359,270.434h4.552l2.104,29.861h0.084l2.234-29.861h5.151l2.234,29.861h0.085l2.104-29.861h4.077
			l-3.047,38.853h-5.883l-2.148-26.198h-0.085l-2.147,26.198h-6.267L347.359,270.434z"/>
		<path fill="#FFFFFF" d="M345.601,269.32h4.426l2.046,29.861h0.082l2.173-29.861h5.009l2.172,29.861h0.082l2.046-29.861h3.965
			l-2.964,38.854h-5.721l-2.089-26.198h-0.083l-2.087,26.198h-6.092L345.601,269.32z"/>
		<path fill="#494949" d="M429.546,270.434h7.903l6.048,38.853h-5.835l-1.062-7.715v0.11h-6.631l-1.062,7.604h-5.411
			L429.546,270.434z M435.911,296.409l-2.6-19.205h-0.106l-2.546,19.205H435.911z"/>
		<path fill="#FFFFFF" d="M427.981,268.925h7.509l5.745,38.853h-5.545l-1.007-7.715v0.111h-6.301l-1.008,7.604h-5.14
			L427.981,268.925z M434.024,294.901l-2.463-19.205h-0.104l-2.42,19.205H434.024z"/>
		<g>
			<path fill="#494949" d="M467.769,298.521l6.8-24.636l9.28,2.562l-6.801,24.636l-6.375,18.487l-6.917-1.909L467.769,298.521z
				 M460.904,324.048l8.943,2.468l-2.47,8.943l-8.943-2.469L460.904,324.048z"/>
		</g>
		<g>
			<path fill="#FFFFFF" d="M465.435,297.406l6.8-24.636l9.28,2.562l-6.801,24.636l-6.375,18.488l-6.917-1.91L465.435,297.406z
				 M458.57,322.932l8.943,2.469l-2.47,8.943l-8.943-2.469L458.57,322.932z"/>
		</g>
		<g>
			<path d="M317.756,352.303h3.826l1.706,12.024h0.049l1.706-12.024h3.826v16.801h-2.535v-12.721h-0.048l-1.95,12.721h-2.242
				l-1.95-12.721h-0.048v12.721h-2.34V352.303z"/>
			<path d="M333.548,352.303h3.631l2.778,16.801h-2.68l-0.487-3.336v0.047h-3.046l-0.487,3.289h-2.486L333.548,352.303z
				 M336.473,363.535l-1.194-8.305h-0.049l-1.169,8.305H336.473z"/>
			<path d="M341.857,352.303h3.973c1.381,0,2.388,0.316,3.021,0.948s0.95,1.604,0.95,2.916v1.032c0,1.744-0.585,2.848-1.754,3.313
				v0.047c0.649,0.192,1.108,0.584,1.377,1.176c0.268,0.593,0.401,1.385,0.401,2.377v2.951c0,0.48,0.017,0.869,0.049,1.164
				c0.032,0.297,0.113,0.588,0.244,0.877h-2.729c-0.098-0.272-0.163-0.528-0.195-0.769c-0.032-0.239-0.049-0.672-0.049-1.296v-3.072
				c0-0.768-0.126-1.304-0.377-1.607c-0.253-0.305-0.687-0.457-1.305-0.457h-0.926v7.201h-2.681V352.303z M345.513,359.503
				c0.536,0,0.938-0.136,1.207-0.407c0.268-0.272,0.401-0.729,0.401-1.369v-1.295c0-0.608-0.109-1.049-0.329-1.32
				c-0.219-0.271-0.564-0.408-1.035-0.408h-1.219v4.8H345.513z"/>
			<path d="M352.288,352.303h2.681v7.08l3.412-7.08h2.681l-3.192,6.168l3.241,10.633h-2.803l-2.267-7.488l-1.072,2.136v5.353h-2.681
				V352.303z"/>
			<path d="M362.986,352.303h7.312v2.4h-4.631v4.439h3.68v2.4h-3.68v5.16h4.631v2.4h-7.312V352.303z"/>
			<path d="M374.537,354.703h-2.803v-2.4h8.286v2.4h-2.803v14.4h-2.681V354.703z"/>
			<path d="M381.921,352.303h2.681v16.801h-2.681V352.303z"/>
			<path d="M387.209,352.303h3.363l2.607,10.057h0.049v-10.057h2.389v16.801h-2.754l-3.217-12.265h-0.049v12.265h-2.389V352.303z"/>
			<path d="M399.053,368.251c-0.683-0.728-1.023-1.772-1.023-3.132v-8.832c0-1.359,0.341-2.404,1.023-3.133
				c0.682-0.727,1.673-1.092,2.973-1.092s2.291,0.365,2.974,1.092c0.682,0.729,1.023,1.773,1.023,3.133v1.439h-2.535v-1.607
				c0-1.104-0.463-1.656-1.389-1.656s-1.389,0.553-1.389,1.656v9.191c0,1.089,0.463,1.633,1.389,1.633s1.389-0.544,1.389-1.633
				v-3.287h-1.34v-2.4h3.875v5.496c0,1.359-0.342,2.404-1.023,3.132c-0.683,0.729-1.674,1.093-2.974,1.093
				S399.734,368.979,399.053,368.251z"/>
			<path d="M412.87,352.303h4.095c1.331,0,2.331,0.353,2.997,1.057s0.999,1.736,0.999,3.096v8.496c0,1.359-0.333,2.393-0.999,3.096
				c-0.666,0.705-1.666,1.057-2.997,1.057h-4.095V352.303z M416.916,366.703c0.438,0,0.775-0.128,1.011-0.385
				c0.235-0.255,0.354-0.672,0.354-1.248v-8.735c0-0.576-0.118-0.991-0.354-1.248c-0.235-0.256-0.572-0.384-1.011-0.384h-1.365v12
				H416.916z"/>
			<path d="M423.373,352.303h2.681v16.801h-2.681V352.303z"/>
			<path d="M429.49,368.251c-0.683-0.728-1.023-1.772-1.023-3.132v-8.832c0-1.359,0.341-2.404,1.023-3.133
				c0.682-0.727,1.673-1.092,2.973-1.092s2.291,0.365,2.974,1.092c0.682,0.729,1.023,1.773,1.023,3.133v1.439h-2.535v-1.607
				c0-1.104-0.463-1.656-1.389-1.656s-1.389,0.553-1.389,1.656v9.191c0,1.089,0.463,1.633,1.389,1.633s1.389-0.544,1.389-1.633
				v-3.287h-1.34v-2.4h3.875v5.496c0,1.359-0.342,2.404-1.023,3.132c-0.683,0.729-1.674,1.093-2.974,1.093
				S430.172,368.979,429.49,368.251z"/>
			<path d="M438.799,352.303h2.681v16.801h-2.681V352.303z"/>
			<path d="M446.183,354.703h-2.803v-2.4h8.286v2.4h-2.803v14.4h-2.681V354.703z"/>
			<path d="M454.517,352.303h3.632l2.777,16.801h-2.681l-0.487-3.336v0.047h-3.046l-0.487,3.289h-2.486L454.517,352.303z
				 M457.441,363.535l-1.194-8.305h-0.049l-1.17,8.305H457.441z"/>
			<path d="M462.827,352.303h2.681v14.4h4.411v2.4h-7.092V352.303z"/>
		</g>
	</g>
</g>
<g id="Capa_2">
</g>
</svg>
